<?xml version="1.0" standalone="no"?>
<!DOCTYPE svg PUBLIC "-//W3C//DTD SVG 20010904//EN"
 "http://www.w3.org/TR/2001/REC-SVG-20010904/DTD/svg10.dtd">
<svg version="1.0" xmlns="http://www.w3.org/2000/svg"
 width="432.000000pt" height="432.000000pt" viewBox="0 0 432.000000 432.000000"
 preserveAspectRatio="xMidYMid meet">
<metadata>
Created by potrace 1.14, written by Peter Selinger 2001-2017
</metadata>
<g transform="translate(0.000000,432.000000) scale(0.100000,-0.100000)"
fill="#000000" stroke="none">
<path d="M2967 4113 l-139 -56 7 -141 c4 -78 10 -157 14 -177 l6 -36 128 50
127 50 0 183 c0 101 -1 184 -2 184 -2 -1 -65 -26 -141 -57z"/>
<path d="M2580 3891 c-183 -60 -592 -222 -618 -245 -10 -10 -10 -80 -2 -346 5
-184 14 -546 20 -805 14 -648 30 -1218 33 -1221 10 -10 196 51 531 172 l78 29
-7 105 c-3 58 -7 106 -8 107 -4 3 -139 -36 -194 -57 -31 -11 -57 -19 -60 -17
-2 2 -6 224 -10 493 l-6 489 159 64 c87 35 162 69 166 75 4 6 8 70 8 143 l0
132 -41 -14 c-56 -20 -59 -19 -59 15 0 39 -7 38 -134 -8 l-104 -39 -6 71 c-3
39 -7 179 -8 310 l-3 240 150 56 c83 32 167 65 189 74 l39 16 -7 53 c-3 28 -6
71 -6 95 0 23 -3 42 -7 41 -5 0 -46 -13 -93 -28z m-300 -464 c0 -79 3 -219 7
-310 l6 -167 -54 -24 -54 -24 -6 147 c-4 80 -10 219 -14 308 l-6 163 53 24
c29 13 56 25 61 25 4 1 7 -64 7 -142z m348 -573 l-3 -96 -150 -60 c-82 -33
-156 -66 -164 -72 -12 -9 -13 -83 -6 -481 5 -258 9 -488 9 -509 1 -38 -1 -40
-47 -59 -26 -11 -50 -18 -52 -15 -8 8 -27 581 -28 868 l-2 264 192 81 c159 66
193 84 193 100 1 51 13 68 53 74 4 0 6 -42 5 -95z"/>
<path d="M3080 3635 c-19 -7 -79 -34 -134 -59 l-98 -46 6 -212 c8 -262 33
-1175 42 -1549 l7 -276 90 23 c49 13 91 24 92 26 2 2 7 64 12 138 l8 135 80
20 80 20 7 200 c14 410 28 1519 19 1528 -5 5 -33 -4 -67 -21 -105 -52 -103
-53 -106 21 l-3 64 -35 -12z m175 -362 c-3 -142 -10 -508 -16 -813 -9 -485
-12 -557 -26 -567 -16 -12 -100 -29 -108 -21 -2 2 0 157 5 343 5 187 12 546
16 798 l7 458 56 29 c31 16 59 29 63 30 4 0 6 -116 3 -257z"/>
<path d="M1795 3488 c-53 -19 -496 -204 -620 -260 l-120 -53 -3 -109 -3 -109
33 7 c17 3 82 29 144 56 62 28 114 50 117 50 2 0 7 -287 10 -637 7 -619 22
-1292 30 -1299 2 -2 51 12 110 32 121 42 117 36 117 166 l0 86 73 25 72 24 0
449 c0 247 -4 648 -8 891 l-8 442 49 25 c48 24 49 26 55 78 11 87 9 148 -5
147 -7 0 -26 -5 -43 -11z m-83 -1227 l3 -764 -52 -18 -53 -18 0 136 c0 204
-19 1310 -24 1450 l-6 123 58 29 57 29 7 -102 c5 -55 9 -445 10 -865z"/>
<path d="M2158 1058 c-807 -269 -1108 -374 -1108 -385 0 -9 6 -12 18 -9 606
197 2227 745 2230 754 2 7 -4 12 -15 11 -10 0 -516 -167 -1125 -371z"/>
<path d="M3156 1090 c-25 -31 -32 -62 -20 -94 4 -11 19 -16 51 -16 42 0 44 -1
41 -26 -4 -35 -31 -53 -56 -37 -25 15 -46 1 -38 -25 18 -56 119 -15 132 54 11
57 -1 74 -52 74 -44 0 -45 1 -42 28 3 25 6 27 46 24 40 -2 43 -1 40 20 -2 18
-10 24 -39 26 -30 3 -41 -2 -63 -28z"/>
<path d="M2980 1046 c-61 -19 -60 -18 -60 -143 l0 -115 29 5 c54 11 101 36
101 53 0 16 -1 16 -68 -2 -22 -6 -23 -4 -20 27 2 28 8 35 36 43 22 6 32 15 32
28 0 16 -5 18 -36 12 -34 -6 -35 -6 -32 21 2 22 11 31 38 40 19 6 36 19 38 28
4 19 -8 20 -58 3z"/>
<path d="M2789 918 l-1 -73 -25 58 c-18 39 -32 57 -45 57 -16 0 -18 -10 -18
-125 0 -106 2 -124 15 -119 11 5 15 24 16 83 0 80 0 80 38 -11 15 -35 24 -46
36 -42 22 9 23 244 0 244 -12 0 -15 -15 -16 -72z"/>
<path d="M2567 913 c-7 -7 -10 -243 -3 -243 2 0 11 3 20 6 13 5 16 26 16 125
0 93 -3 119 -13 119 -8 0 -17 -3 -20 -7z"/>
<path d="M2383 853 c-15 -5 -19 -243 -5 -243 5 0 29 7 55 16 35 12 47 21 47
36 0 14 -5 18 -16 14 -65 -25 -63 -27 -66 81 -2 74 -6 99 -15 96z"/>
<path d="M2203 793 l-43 -15 0 -120 c0 -119 0 -119 23 -112 79 25 92 32 95 52
3 21 2 21 -37 7 l-41 -14 0 34 c0 29 4 34 30 40 21 5 30 12 30 27 0 17 -4 19
-30 13 -28 -6 -30 -5 -30 23 0 24 5 31 32 38 18 6 34 17 36 27 4 20 -9 20 -65
0z"/>
<path d="M1988 723 l-48 -14 0 -119 c0 -66 3 -120 6 -120 3 0 28 10 56 22 60
26 68 43 68 148 0 96 -9 105 -82 83z m42 -108 c0 -69 -2 -76 -22 -84 -13 -5
-26 -7 -30 -4 -9 5 -11 125 -2 147 3 9 17 16 30 16 23 0 24 -3 24 -75z"/>
<path d="M1810 550 c0 -66 2 -120 4 -120 2 0 11 3 20 6 13 5 16 25 16 120 0
107 -1 114 -20 114 -19 0 -20 -7 -20 -120z"/>
<path d="M1687 623 c-4 -3 -7 -48 -7 -99 0 -81 -2 -95 -19 -103 -10 -6 -21 -7
-25 -4 -3 3 -6 46 -6 95 0 80 -2 89 -17 86 -15 -3 -18 -17 -21 -88 -3 -101 2
-127 28 -135 26 -8 74 18 88 50 17 37 16 205 -1 205 -8 0 -17 -3 -20 -7z"/>
<path d="M1407 530 c-26 -21 -27 -25 -27 -116 0 -89 1 -95 22 -103 54 -20 98
26 98 100 0 51 -1 52 -37 43 -26 -7 -32 -44 -8 -44 23 0 18 -37 -7 -54 -12 -8
-25 -13 -30 -10 -13 8 -10 138 4 152 15 15 48 16 48 2 0 -5 7 -10 16 -10 11 0
14 8 12 28 -2 22 -9 28 -34 30 -19 2 -40 -5 -57 -18z"/>
</g>
</svg>
